<svg width="563" height="171" viewBox="0 0 563 171" fill="none" xmlns="http://www.w3.org/2000/svg">
<rect width="563" height="171" fill="white"/>
<rect x="29" y="16" width="505" height="136" fill="#C4C4C4"/>
<rect x="29" y="16" width="26" height="136" fill="#515151"/>
<path d="M192.875 89.9004L184.25 97.8965L181.105 116H167.943L179.309 50.5938H192.471L187.439 79.4336L194.133 71.8867L213.809 50.5938H230.969L202.713 80.332L219.559 116H204.555L192.875 89.9004ZM237.662 116H224.904L233.35 67.3945H246.107L237.662 116ZM234.832 55.041C234.772 53.0345 235.431 51.3724 236.809 50.0547C238.186 48.737 239.848 48.0781 241.795 48.0781C243.712 48.0182 245.374 48.6022 246.781 49.8301C248.189 51.0579 248.923 52.6452 248.982 54.5918C249.042 56.4486 248.413 58.0658 247.096 59.4434C245.808 60.821 244.116 61.5397 242.02 61.5996C240.133 61.6595 238.471 61.0905 237.033 59.8926C235.626 58.6947 234.892 57.0775 234.832 55.041ZM276.609 102.299C277.089 99.903 275.426 98.166 271.623 97.0879L267.535 96.0547C257.862 93.3893 253.16 88.6875 253.43 81.9492C253.579 77.3672 255.601 73.6387 259.494 70.7637C263.417 67.8587 268.134 66.4362 273.645 66.4961C279.125 66.556 283.557 68.0085 286.941 70.8535C290.326 73.6986 292.048 77.487 292.107 82.2188L279.529 82.1738C279.589 78.0111 277.523 75.8997 273.33 75.8398C271.354 75.8398 269.632 76.334 268.164 77.3223C266.727 78.3105 265.843 79.6432 265.514 81.3203C265.064 83.7161 266.876 85.4082 270.949 86.3965L272.746 86.8008C276.879 87.7891 280.038 88.9271 282.225 90.2148C284.411 91.4727 286.088 93.0449 287.256 94.9316C288.454 96.8184 289.008 99.0794 288.918 101.715C288.828 104.799 287.825 107.495 285.908 109.801C284.021 112.107 281.416 113.889 278.092 115.146C274.798 116.404 271.324 116.988 267.67 116.898C262.279 116.839 257.787 115.296 254.193 112.271C250.6 109.217 248.773 105.279 248.713 100.457L260.662 100.547C260.782 105.189 263.268 107.54 268.119 107.6C270.455 107.6 272.372 107.12 273.869 106.162C275.396 105.204 276.31 103.916 276.609 102.299ZM322.924 116C322.535 114.772 322.37 113.305 322.43 111.598C318.776 115.251 314.643 117.018 310.031 116.898C305.779 116.839 302.245 115.461 299.43 112.766C296.645 110.04 295.342 106.686 295.521 102.703C295.731 97.4023 297.947 93.3444 302.17 90.5293C306.423 87.6842 312.113 86.2617 319.24 86.2617L325.17 86.3516L325.799 83.4316C325.979 82.4434 326.023 81.5 325.934 80.6016C325.784 79.194 325.245 78.1009 324.316 77.3223C323.418 76.5137 322.22 76.0944 320.723 76.0645C318.746 76.0046 317.069 76.4987 315.691 77.5469C314.314 78.5651 313.43 80.0475 313.041 81.9941L300.328 82.0391C300.538 77.3971 302.664 73.6387 306.707 70.7637C310.78 67.8587 315.796 66.4362 321.756 66.4961C327.266 66.6159 331.579 68.263 334.693 71.4375C337.808 74.582 339.111 78.64 338.602 83.6113L334.873 106.881L334.648 109.756C334.589 111.882 334.843 113.679 335.412 115.146L335.367 116H322.924ZM313.176 107.061C316.829 107.18 320.019 105.593 322.744 102.299L324.316 93.8984L319.914 93.8535C315.242 93.9733 311.873 95.3958 309.807 98.1211C309.058 99.1094 308.594 100.322 308.414 101.76C308.174 103.377 308.504 104.665 309.402 105.623C310.331 106.551 311.589 107.031 313.176 107.061ZM362.455 72.7852C366.258 68.5326 370.646 66.4362 375.617 66.4961C380.439 66.6159 383.973 68.3529 386.219 71.707C388.495 75.0312 389.348 79.5833 388.779 85.3633L383.658 116H370.99L376.156 85.2285C376.306 84.0605 376.336 82.9824 376.246 81.9941C375.947 78.7598 374.06 77.0977 370.586 77.0078C367.172 76.888 364.177 78.3555 361.602 81.4102L355.492 116H342.824L354.773 47H367.486L362.455 72.7852ZM402.391 102.613C404.397 102.553 406.104 103.182 407.512 104.5C408.949 105.788 409.668 107.42 409.668 109.396C409.728 111.373 409.069 113.065 407.691 114.473C406.314 115.85 404.622 116.539 402.615 116.539C400.609 116.599 398.917 116 397.539 114.742C396.161 113.484 395.443 111.852 395.383 109.846C395.323 107.839 395.967 106.147 397.314 104.77C398.662 103.392 400.354 102.673 402.391 102.613Z" fill="black"/>
</svg>
